g Mesh1
# Vertex Positions: 8
v 5.5 -0.0625 9
v -5.5 -0.0625 9
v -5.5 0.0625 9
v 5.5 0.0625 9
v 5.5 -0.0625 -9
v 5.5 0.0625 -9
v -5.5 -0.0625 -9
v -5.5 0.0625 -9
# Vertex UVs: 12
vt 3.25 0.9375
vt -2.25 0.9375
vt -2.25 1
vt 3.25 1
vt 1 0.9375
vt -8 0.9375
vt -8 1
vt 1 1
vt 9 0.9375
vt 0 0.9375
vt 0 1
vt 9 1
# Vertex Normals: 4
vn 0 0 1
vn 1 0 0
vn -1 0 0
vn 0 0 -1
# Faces: 4
f 4/4/1 4/4/1 3/3/1 2/2/1 1/1/1 
f 6/8/2 4/7/2 4/7/2 1/6/2 5/5/2 
f 3/12/3 8/11/3 7/10/3 2/9/3 
f 8/4/4 6/3/4 5/2/4 7/1/4 


g Mesh2
# Vertex Positions: 0
# Vertex UVs: 2
vt 1 5.960464E-08
vt 2.980232E-08 0
# Vertex Normals: 1
vn 0 -1 0
# Faces: 1
f 1/8/5 2/11/5 7/14/5 5/13/5 


g Mesh3
# Vertex Positions: 0
# Vertex UVs: 0
# Vertex Normals: 1
vn 0 1 0
# Faces: 1
f 8/13/6 3/8/6 4/11/6 4/11/6 4/11/6 6/14/6 


